<?xml version="1.0" encoding="utf-8" standalone="no"?>
<!DOCTYPE svg PUBLIC "-//W3C//DTD SVG 1.1//EN"
  "http://www.w3.org/Graphics/SVG/1.1/DTD/svg11.dtd">
<svg xmlns:xlink="http://www.w3.org/1999/xlink" width="409.997344pt" height="302.015069pt" viewBox="0 0 409.997344 302.015069" xmlns="http://www.w3.org/2000/svg" version="1.1">
 <metadata>
  <rdf:RDF xmlns:dc="http://purl.org/dc/elements/1.1/" xmlns:cc="http://creativecommons.org/ns#" xmlns:rdf="http://www.w3.org/1999/02/22-rdf-syntax-ns#">
   <cc:Work>
    <dc:type rdf:resource="http://purl.org/dc/dcmitype/StillImage"/>
    <dc:format>image/svg+xml</dc:format>
    <dc:creator>
     <cc:Agent>
      <dc:title>Matplotlib v3.10.8, https://matplotlib.org/</dc:title>
     </cc:Agent>
    </dc:creator>
   </cc:Work>
  </rdf:RDF>
 </metadata>
 <defs>
  <style type="text/css">*{stroke-linejoin: round; stroke-linecap: butt}</style>
 </defs>
 <g id="figure_1">
  <g id="patch_1">
   <path d="M -0 302.015069 
L 409.997344 302.015069 
L 409.997344 0 
L -0 0 
z
" style="fill: #ffffff"/>
  </g>
  <g id="axes_1">
   <g id="patch_2">
    <path d="M 47.045547 259.995792 
L 373.958047 259.995792 
L 373.958047 9.526881 
L 47.045547 9.526881 
z
" style="fill: #ffffff"/>
   </g>
   <g id="matplotlib.axis_1">
    <g id="xtick_1">
     <g id="line2d_1">
      <defs>
       <path id="m2121b3fd3b" d="M 0 0 
L 0 2 
" style="stroke: #000000; stroke-width: 0.3"/>
      </defs>
      <g>
       <use xlink:href="#m2121b3fd3b" x="73.636516" y="259.995792" style="stroke: #000000; stroke-width: 0.3"/>
      </g>
     </g>
     <g id="text_1">
      <!-- t=0 -->
      <g transform="translate(70.534085 279.370945) rotate(-45) scale(0.1 -0.1)">
       <defs>
        <path id="Roboto-ExtraLight-74" d="M 1719 3381 
L 1719 3156 
L 100 3156 
L 100 3381 
L 1719 3381 
z
M 725 4275 
L 975 4275 
L 975 816 
Q 975 544 1042 405 
Q 1109 266 1220 217 
Q 1331 169 1459 169 
Q 1550 169 1626 178 
Q 1703 188 1781 200 
L 1803 -19 
Q 1734 -41 1625 -52 
Q 1516 -63 1431 -63 
Q 1219 -63 1059 15 
Q 900 94 812 286 
Q 725 478 725 816 
L 725 4275 
z
" transform="scale(0.015625)"/>
        <path id="Roboto-ExtraLight-3d" d="M 3069 2850 
L 3069 2616 
L 463 2616 
L 463 2850 
L 3069 2850 
z
M 3069 1575 
L 3069 1341 
L 463 1341 
L 463 1575 
L 3069 1575 
z
" transform="scale(0.015625)"/>
        <path id="Roboto-ExtraLight-30" d="M 3138 2681 
L 3138 1872 
Q 3138 1406 3047 1045 
Q 2956 684 2781 437 
Q 2606 191 2351 64 
Q 2097 -63 1766 -63 
Q 1503 -63 1287 18 
Q 1072 100 903 259 
Q 734 419 618 653 
Q 503 888 443 1194 
Q 384 1500 384 1872 
L 384 2681 
Q 384 3153 476 3511 
Q 569 3869 744 4116 
Q 919 4363 1175 4489 
Q 1431 4616 1759 4616 
Q 2022 4616 2239 4534 
Q 2456 4453 2623 4293 
Q 2791 4134 2905 3900 
Q 3019 3666 3078 3361 
Q 3138 3056 3138 2681 
z
M 2888 1859 
L 2888 2703 
Q 2888 3013 2842 3275 
Q 2797 3538 2708 3744 
Q 2619 3950 2483 4094 
Q 2347 4238 2165 4313 
Q 1984 4388 1759 4388 
Q 1478 4388 1265 4270 
Q 1053 4153 914 3934 
Q 775 3716 704 3403 
Q 634 3091 634 2703 
L 634 1859 
Q 634 1553 678 1292 
Q 722 1031 812 822 
Q 903 613 1039 467 
Q 1175 322 1356 244 
Q 1538 166 1766 166 
Q 2050 166 2261 286 
Q 2472 406 2611 628 
Q 2750 850 2819 1162 
Q 2888 1475 2888 1859 
z
" transform="scale(0.015625)"/>
       </defs>
       <use xlink:href="#Roboto-ExtraLight-74"/>
       <use xlink:href="#Roboto-ExtraLight-3d" transform="translate(31.835938 0)"/>
       <use xlink:href="#Roboto-ExtraLight-30" transform="translate(87.402344 0)"/>
      </g>
     </g>
    </g>
    <g id="xtick_2">
     <g id="line2d_2">
      <g>
       <use xlink:href="#m2121b3fd3b" x="112.740882" y="259.995792" style="stroke: #000000; stroke-width: 0.3"/>
      </g>
     </g>
     <g id="text_2">
      <!-- t=1 -->
      <g transform="translate(109.638451 279.370945) rotate(-45) scale(0.1 -0.1)">
       <defs>
        <path id="Roboto-ExtraLight-31" d="M 2103 4566 
L 2103 0 
L 1853 0 
L 1853 4244 
L 575 3766 
L 575 4016 
L 2056 4566 
L 2103 4566 
z
" transform="scale(0.015625)"/>
       </defs>
       <use xlink:href="#Roboto-ExtraLight-74"/>
       <use xlink:href="#Roboto-ExtraLight-3d" transform="translate(31.835938 0)"/>
       <use xlink:href="#Roboto-ExtraLight-31" transform="translate(87.402344 0)"/>
      </g>
     </g>
    </g>
    <g id="xtick_3">
     <g id="line2d_3">
      <g>
       <use xlink:href="#m2121b3fd3b" x="151.845248" y="259.995792" style="stroke: #000000; stroke-width: 0.3"/>
      </g>
     </g>
     <g id="text_3">
      <!-- t=2 -->
      <g transform="translate(148.742817 279.370945) rotate(-45) scale(0.1 -0.1)">
       <defs>
        <path id="Roboto-ExtraLight-32" d="M 3231 228 
L 3231 0 
L 459 0 
L 459 216 
L 1950 1925 
Q 2231 2247 2406 2501 
Q 2581 2756 2662 2968 
Q 2744 3181 2744 3378 
Q 2744 3681 2625 3906 
Q 2506 4131 2272 4257 
Q 2038 4384 1694 4384 
Q 1375 4384 1126 4237 
Q 878 4091 739 3836 
Q 600 3581 600 3256 
L 353 3256 
Q 353 3628 518 3936 
Q 684 4244 986 4428 
Q 1288 4613 1694 4613 
Q 2094 4613 2384 4470 
Q 2675 4328 2834 4056 
Q 2994 3784 2994 3391 
Q 2994 3184 2917 2971 
Q 2841 2759 2708 2548 
Q 2575 2338 2411 2131 
Q 2247 1925 2072 1725 
L 775 228 
L 3231 228 
z
" transform="scale(0.015625)"/>
       </defs>
       <use xlink:href="#Roboto-ExtraLight-74"/>
       <use xlink:href="#Roboto-ExtraLight-3d" transform="translate(31.835938 0)"/>
       <use xlink:href="#Roboto-ExtraLight-32" transform="translate(87.402344 0)"/>
      </g>
     </g>
    </g>
    <g id="xtick_4">
     <g id="line2d_4">
      <g>
       <use xlink:href="#m2121b3fd3b" x="190.949614" y="259.995792" style="stroke: #000000; stroke-width: 0.3"/>
      </g>
     </g>
     <g id="text_4">
      <!-- t=3 -->
      <g transform="translate(187.847183 279.370945) rotate(-45) scale(0.1 -0.1)">
       <defs>
        <path id="Roboto-ExtraLight-33" d="M 1288 2438 
L 1647 2438 
Q 2028 2438 2287 2567 
Q 2547 2697 2678 2911 
Q 2809 3125 2809 3381 
Q 2809 3663 2698 3891 
Q 2588 4119 2355 4251 
Q 2122 4384 1756 4384 
Q 1447 4384 1197 4259 
Q 947 4134 798 3904 
Q 650 3675 650 3356 
L 403 3356 
Q 403 3738 584 4020 
Q 766 4303 1073 4458 
Q 1381 4613 1756 4613 
Q 2153 4613 2445 4464 
Q 2738 4316 2898 4037 
Q 3059 3759 3059 3369 
Q 3059 3147 2964 2944 
Q 2869 2741 2689 2583 
Q 2509 2425 2253 2333 
Q 1997 2241 1672 2241 
L 1288 2241 
L 1288 2438 
z
M 1288 2203 
L 1288 2394 
L 1672 2394 
Q 2034 2394 2309 2312 
Q 2584 2231 2773 2076 
Q 2963 1922 3058 1705 
Q 3153 1488 3153 1219 
Q 3153 913 3051 675 
Q 2950 438 2765 272 
Q 2581 106 2329 21 
Q 2078 -63 1781 -63 
Q 1516 -63 1256 17 
Q 997 97 784 259 
Q 572 422 444 670 
Q 316 919 316 1253 
L 566 1253 
Q 566 934 723 690 
Q 881 447 1156 306 
Q 1431 166 1781 166 
Q 2138 166 2389 289 
Q 2641 413 2772 645 
Q 2903 878 2903 1206 
Q 2903 1559 2743 1779 
Q 2584 2000 2300 2101 
Q 2016 2203 1647 2203 
L 1288 2203 
z
" transform="scale(0.015625)"/>
       </defs>
       <use xlink:href="#Roboto-ExtraLight-74"/>
       <use xlink:href="#Roboto-ExtraLight-3d" transform="translate(31.835938 0)"/>
       <use xlink:href="#Roboto-ExtraLight-33" transform="translate(87.402344 0)"/>
      </g>
     </g>
    </g>
    <g id="xtick_5">
     <g id="line2d_5">
      <g>
       <use xlink:href="#m2121b3fd3b" x="230.05398" y="259.995792" style="stroke: #000000; stroke-width: 0.3"/>
      </g>
     </g>
     <g id="text_5">
      <!-- t=4 -->
      <g transform="translate(226.951549 279.370945) rotate(-45) scale(0.1 -0.1)">
       <defs>
        <path id="Roboto-ExtraLight-34" d="M 3425 1434 
L 3425 1206 
L 238 1206 
L 238 1347 
L 2384 4550 
L 2603 4550 
L 2194 3863 
L 578 1434 
L 3425 1434 
z
M 2669 4550 
L 2669 0 
L 2419 0 
L 2419 4550 
L 2669 4550 
z
" transform="scale(0.015625)"/>
       </defs>
       <use xlink:href="#Roboto-ExtraLight-74"/>
       <use xlink:href="#Roboto-ExtraLight-3d" transform="translate(31.835938 0)"/>
       <use xlink:href="#Roboto-ExtraLight-34" transform="translate(87.402344 0)"/>
      </g>
     </g>
    </g>
    <g id="xtick_6">
     <g id="line2d_6">
      <g>
       <use xlink:href="#m2121b3fd3b" x="269.158346" y="259.995792" style="stroke: #000000; stroke-width: 0.3"/>
      </g>
     </g>
     <g id="text_6">
      <!-- t=5 -->
      <g transform="translate(266.055915 279.370945) rotate(-45) scale(0.1 -0.1)">
       <defs>
        <path id="Roboto-ExtraLight-35" d="M 900 2300 
L 706 2363 
L 922 4550 
L 3166 4550 
L 3166 4313 
L 1141 4313 
L 966 2603 
Q 1081 2694 1328 2789 
Q 1575 2884 1881 2884 
Q 2181 2884 2426 2786 
Q 2672 2688 2853 2502 
Q 3034 2316 3131 2052 
Q 3228 1788 3228 1450 
Q 3228 1122 3153 847 
Q 3078 572 2920 367 
Q 2763 163 2513 50 
Q 2263 -63 1916 -63 
Q 1647 -63 1411 14 
Q 1175 91 992 247 
Q 809 403 693 640 
Q 578 878 553 1197 
L 797 1197 
Q 831 863 970 633 
Q 1109 403 1348 284 
Q 1588 166 1916 166 
Q 2181 166 2379 248 
Q 2578 331 2711 493 
Q 2844 656 2909 895 
Q 2975 1134 2975 1444 
Q 2975 1703 2903 1920 
Q 2831 2138 2687 2302 
Q 2544 2466 2336 2556 
Q 2128 2647 1859 2647 
Q 1513 2647 1294 2553 
Q 1075 2459 900 2300 
z
" transform="scale(0.015625)"/>
       </defs>
       <use xlink:href="#Roboto-ExtraLight-74"/>
       <use xlink:href="#Roboto-ExtraLight-3d" transform="translate(31.835938 0)"/>
       <use xlink:href="#Roboto-ExtraLight-35" transform="translate(87.402344 0)"/>
      </g>
     </g>
    </g>
    <g id="xtick_7">
     <g id="line2d_7">
      <g>
       <use xlink:href="#m2121b3fd3b" x="308.262712" y="259.995792" style="stroke: #000000; stroke-width: 0.3"/>
      </g>
     </g>
     <g id="text_7">
      <!-- t=6 -->
      <g transform="translate(305.160281 279.370945) rotate(-45) scale(0.1 -0.1)">
       <defs>
        <path id="Roboto-ExtraLight-36" d="M 2572 4600 
L 2628 4600 
L 2628 4369 
L 2572 4369 
Q 2156 4369 1804 4234 
Q 1453 4100 1195 3825 
Q 938 3550 795 3137 
Q 653 2725 653 2169 
L 653 1566 
Q 653 1244 745 984 
Q 838 725 1002 542 
Q 1166 359 1391 261 
Q 1616 163 1881 163 
Q 2125 163 2322 269 
Q 2519 375 2656 561 
Q 2794 747 2869 986 
Q 2944 1225 2944 1491 
Q 2944 1756 2875 1984 
Q 2806 2213 2670 2388 
Q 2534 2563 2326 2661 
Q 2119 2759 1841 2759 
Q 1528 2759 1251 2620 
Q 975 2481 800 2245 
Q 625 2009 622 1725 
L 466 1731 
Q 475 1994 581 2220 
Q 688 2447 878 2620 
Q 1069 2794 1322 2892 
Q 1575 2991 1875 2991 
Q 2197 2991 2440 2875 
Q 2684 2759 2851 2556 
Q 3019 2353 3105 2081 
Q 3191 1809 3191 1497 
Q 3191 1169 3097 884 
Q 3003 600 2829 387 
Q 2656 175 2417 56 
Q 2178 -63 1881 -63 
Q 1553 -63 1283 56 
Q 1013 175 814 394 
Q 616 613 509 909 
Q 403 1206 403 1566 
L 403 2041 
Q 403 2684 559 3164 
Q 716 3644 1003 3964 
Q 1291 4284 1689 4442 
Q 2088 4600 2572 4600 
z
" transform="scale(0.015625)"/>
       </defs>
       <use xlink:href="#Roboto-ExtraLight-74"/>
       <use xlink:href="#Roboto-ExtraLight-3d" transform="translate(31.835938 0)"/>
       <use xlink:href="#Roboto-ExtraLight-36" transform="translate(87.402344 0)"/>
      </g>
     </g>
    </g>
    <g id="xtick_8">
     <g id="line2d_8">
      <g>
       <use xlink:href="#m2121b3fd3b" x="347.367078" y="259.995792" style="stroke: #000000; stroke-width: 0.3"/>
      </g>
     </g>
     <g id="text_8">
      <!-- t=7 -->
      <g transform="translate(344.264647 279.370945) rotate(-45) scale(0.1 -0.1)">
       <defs>
        <path id="Roboto-ExtraLight-37" d="M 3181 4550 
L 3181 4400 
L 1200 0 
L 944 0 
L 2906 4322 
L 241 4322 
L 241 4550 
L 3181 4550 
z
" transform="scale(0.015625)"/>
       </defs>
       <use xlink:href="#Roboto-ExtraLight-74"/>
       <use xlink:href="#Roboto-ExtraLight-3d" transform="translate(31.835938 0)"/>
       <use xlink:href="#Roboto-ExtraLight-37" transform="translate(87.402344 0)"/>
      </g>
     </g>
    </g>
    <g id="text_9">
     <!-- Phase -->
     <g transform="translate(195.948633 292.682256) scale(0.105 -0.105)">
      <defs>
       <path id="Roboto-Regular-50" d="M 2206 1784 
L 991 1784 
L 991 2275 
L 2206 2275 
Q 2559 2275 2778 2387 
Q 2997 2500 3098 2700 
Q 3200 2900 3200 3156 
Q 3200 3391 3098 3597 
Q 2997 3803 2778 3929 
Q 2559 4056 2206 4056 
L 1131 4056 
L 1131 0 
L 528 0 
L 528 4550 
L 2206 4550 
Q 2722 4550 3078 4372 
Q 3434 4194 3618 3880 
Q 3803 3566 3803 3163 
Q 3803 2725 3618 2415 
Q 3434 2106 3078 1945 
Q 2722 1784 2206 1784 
z
" transform="scale(0.015625)"/>
       <path id="Roboto-Regular-68" d="M 1019 4800 
L 1019 0 
L 441 0 
L 441 4800 
L 1019 4800 
z
M 881 1819 
L 641 1828 
Q 644 2175 744 2470 
Q 844 2766 1025 2984 
Q 1206 3203 1457 3323 
Q 1709 3444 2016 3444 
Q 2266 3444 2466 3376 
Q 2666 3309 2808 3162 
Q 2950 3016 3025 2783 
Q 3100 2550 3100 2216 
L 3100 0 
L 2519 0 
L 2519 2222 
Q 2519 2488 2441 2648 
Q 2363 2809 2213 2882 
Q 2063 2956 1844 2956 
Q 1628 2956 1451 2865 
Q 1275 2775 1148 2615 
Q 1022 2456 951 2251 
Q 881 2047 881 1819 
z
" transform="scale(0.015625)"/>
       <path id="Roboto-Regular-61" d="M 2434 578 
L 2434 2319 
Q 2434 2519 2354 2667 
Q 2275 2816 2115 2897 
Q 1956 2978 1722 2978 
Q 1503 2978 1339 2903 
Q 1175 2828 1083 2706 
Q 991 2584 991 2444 
L 413 2444 
Q 413 2625 506 2803 
Q 600 2981 776 3126 
Q 953 3272 1201 3358 
Q 1450 3444 1756 3444 
Q 2125 3444 2408 3319 
Q 2691 3194 2852 2942 
Q 3013 2691 3013 2313 
L 3013 738 
Q 3013 569 3042 378 
Q 3072 188 3131 50 
L 3131 0 
L 2528 0 
Q 2484 100 2459 267 
Q 2434 434 2434 578 
z
M 2534 2050 
L 2541 1644 
L 1956 1644 
Q 1709 1644 1515 1605 
Q 1322 1566 1190 1487 
Q 1059 1409 990 1292 
Q 922 1175 922 1019 
Q 922 859 994 728 
Q 1066 597 1211 520 
Q 1356 444 1569 444 
Q 1834 444 2037 556 
Q 2241 669 2361 831 
Q 2481 994 2491 1147 
L 2738 869 
Q 2716 738 2619 578 
Q 2522 419 2361 273 
Q 2200 128 1979 32 
Q 1759 -63 1484 -63 
Q 1141 -63 883 71 
Q 625 206 483 432 
Q 341 659 341 941 
Q 341 1213 447 1420 
Q 553 1628 753 1767 
Q 953 1906 1234 1978 
Q 1516 2050 1863 2050 
L 2534 2050 
z
" transform="scale(0.015625)"/>
       <path id="Roboto-Regular-73" d="M 2409 897 
Q 2409 1022 2354 1130 
Q 2300 1238 2133 1327 
Q 1966 1416 1631 1481 
Q 1350 1541 1123 1622 
Q 897 1703 739 1818 
Q 581 1934 497 2090 
Q 413 2247 413 2456 
Q 413 2656 502 2834 
Q 591 3013 755 3150 
Q 919 3288 1150 3366 
Q 1381 3444 1666 3444 
Q 2072 3444 2359 3300 
Q 2647 3156 2800 2917 
Q 2953 2678 2953 2388 
L 2375 2388 
Q 2375 2528 2292 2661 
Q 2209 2794 2051 2881 
Q 1894 2969 1666 2969 
Q 1425 2969 1276 2895 
Q 1128 2822 1061 2709 
Q 994 2597 994 2472 
Q 994 2378 1026 2304 
Q 1059 2231 1143 2170 
Q 1228 2109 1381 2056 
Q 1534 2003 1772 1950 
Q 2188 1856 2456 1725 
Q 2725 1594 2856 1403 
Q 2988 1213 2988 941 
Q 2988 719 2895 534 
Q 2803 350 2629 217 
Q 2456 84 2217 10 
Q 1978 -63 1681 -63 
Q 1234 -63 925 96 
Q 616 256 456 509 
Q 297 763 297 1044 
L 878 1044 
Q 891 806 1016 667 
Q 1141 528 1322 470 
Q 1503 413 1681 413 
Q 1919 413 2080 475 
Q 2241 538 2325 647 
Q 2409 756 2409 897 
z
" transform="scale(0.015625)"/>
       <path id="Roboto-Regular-65" d="M 1844 -63 
Q 1491 -63 1205 57 
Q 919 178 714 397 
Q 509 616 400 916 
Q 291 1216 291 1572 
L 291 1703 
Q 291 2116 412 2439 
Q 534 2763 743 2988 
Q 953 3213 1218 3328 
Q 1484 3444 1769 3444 
Q 2131 3444 2395 3319 
Q 2659 3194 2828 2970 
Q 2997 2747 3078 2445 
Q 3159 2144 3159 1788 
L 3159 1528 
L 634 1528 
L 634 2000 
L 2581 2000 
L 2581 2044 
Q 2569 2269 2489 2481 
Q 2409 2694 2237 2831 
Q 2066 2969 1769 2969 
Q 1572 2969 1406 2886 
Q 1241 2803 1122 2640 
Q 1003 2478 937 2243 
Q 872 2009 872 1703 
L 872 1572 
Q 872 1331 939 1120 
Q 1006 909 1136 750 
Q 1266 591 1452 500 
Q 1638 409 1875 409 
Q 2181 409 2393 534 
Q 2606 659 2766 869 
L 3116 591 
Q 3006 425 2837 275 
Q 2669 125 2423 31 
Q 2178 -63 1844 -63 
z
" transform="scale(0.015625)"/>
      </defs>
      <use xlink:href="#Roboto-Regular-50"/>
      <use xlink:href="#Roboto-Regular-68" transform="translate(63.085938 0)"/>
      <use xlink:href="#Roboto-Regular-61" transform="translate(118.164062 0)"/>
      <use xlink:href="#Roboto-Regular-73" transform="translate(172.558594 0)"/>
      <use xlink:href="#Roboto-Regular-65" transform="translate(224.169922 0)"/>
     </g>
    </g>
   </g>
   <g id="matplotlib.axis_2">
    <g id="ytick_1">
     <g id="line2d_9">
      <defs>
       <path id="mbef0329f84" d="M 0 0 
L -2 0 
" style="stroke: #000000; stroke-width: 0.3"/>
      </defs>
      <g>
       <use xlink:href="#mbef0329f84" x="47.045547" y="259.995792" style="stroke: #000000; stroke-width: 0.3"/>
      </g>
     </g>
     <g id="text_10">
      <!-- 0 -->
      <g transform="translate(38.542422 263.745792) scale(0.1 -0.1)">
       <use xlink:href="#Roboto-ExtraLight-30"/>
      </g>
     </g>
    </g>
    <g id="ytick_2">
     <g id="line2d_10">
      <g>
       <use xlink:href="#mbef0329f84" x="47.045547" y="224.417822" style="stroke: #000000; stroke-width: 0.3"/>
      </g>
     </g>
     <g id="text_11">
      <!-- 200 -->
      <g transform="translate(27.536172 228.167822) scale(0.1 -0.1)">
       <use xlink:href="#Roboto-ExtraLight-32"/>
       <use xlink:href="#Roboto-ExtraLight-30" transform="translate(55.029297 0)"/>
       <use xlink:href="#Roboto-ExtraLight-30" transform="translate(110.058594 0)"/>
      </g>
     </g>
    </g>
    <g id="ytick_3">
     <g id="line2d_11">
      <g>
       <use xlink:href="#mbef0329f84" x="47.045547" y="188.839852" style="stroke: #000000; stroke-width: 0.3"/>
      </g>
     </g>
     <g id="text_12">
      <!-- 400 -->
      <g transform="translate(27.536172 192.589852) scale(0.1 -0.1)">
       <use xlink:href="#Roboto-ExtraLight-34"/>
       <use xlink:href="#Roboto-ExtraLight-30" transform="translate(55.029297 0)"/>
       <use xlink:href="#Roboto-ExtraLight-30" transform="translate(110.058594 0)"/>
      </g>
     </g>
    </g>
    <g id="ytick_4">
     <g id="line2d_12">
      <g>
       <use xlink:href="#mbef0329f84" x="47.045547" y="153.261881" style="stroke: #000000; stroke-width: 0.3"/>
      </g>
     </g>
     <g id="text_13">
      <!-- 600 -->
      <g transform="translate(27.536172 157.011881) scale(0.1 -0.1)">
       <use xlink:href="#Roboto-ExtraLight-36"/>
       <use xlink:href="#Roboto-ExtraLight-30" transform="translate(55.029297 0)"/>
       <use xlink:href="#Roboto-ExtraLight-30" transform="translate(110.058594 0)"/>
      </g>
     </g>
    </g>
    <g id="ytick_5">
     <g id="line2d_13">
      <g>
       <use xlink:href="#mbef0329f84" x="47.045547" y="117.683911" style="stroke: #000000; stroke-width: 0.3"/>
      </g>
     </g>
     <g id="text_14">
      <!-- 800 -->
      <g transform="translate(27.536172 121.433911) scale(0.1 -0.1)">
       <defs>
        <path id="Roboto-ExtraLight-38" d="M 3219 1194 
Q 3219 781 3025 500 
Q 2831 219 2504 78 
Q 2178 -63 1772 -63 
Q 1363 -63 1033 78 
Q 703 219 512 500 
Q 322 781 322 1194 
Q 322 1463 431 1686 
Q 541 1909 736 2070 
Q 931 2231 1193 2318 
Q 1456 2406 1766 2406 
Q 2172 2406 2501 2251 
Q 2831 2097 3025 1825 
Q 3219 1553 3219 1194 
z
M 2969 1184 
Q 2969 1497 2808 1728 
Q 2647 1959 2375 2087 
Q 2103 2216 1766 2216 
Q 1425 2216 1153 2087 
Q 881 1959 725 1728 
Q 569 1497 569 1184 
Q 569 856 725 628 
Q 881 400 1154 283 
Q 1428 166 1772 166 
Q 2113 166 2383 283 
Q 2653 400 2811 628 
Q 2969 856 2969 1184 
z
M 3094 3388 
Q 3094 3053 2916 2795 
Q 2738 2538 2439 2392 
Q 2141 2247 1769 2247 
Q 1391 2247 1091 2392 
Q 791 2538 617 2795 
Q 444 3053 444 3388 
Q 444 3784 617 4056 
Q 791 4328 1089 4470 
Q 1388 4613 1763 4613 
Q 2134 4613 2434 4470 
Q 2734 4328 2914 4056 
Q 3094 3784 3094 3388 
z
M 2844 3400 
Q 2844 3688 2700 3909 
Q 2556 4131 2311 4257 
Q 2066 4384 1763 4384 
Q 1456 4384 1214 4265 
Q 972 4147 833 3926 
Q 694 3706 694 3400 
Q 694 3103 833 2889 
Q 972 2675 1215 2559 
Q 1459 2444 1769 2444 
Q 2072 2444 2314 2559 
Q 2556 2675 2700 2889 
Q 2844 3103 2844 3400 
z
" transform="scale(0.015625)"/>
       </defs>
       <use xlink:href="#Roboto-ExtraLight-38"/>
       <use xlink:href="#Roboto-ExtraLight-30" transform="translate(55.029297 0)"/>
       <use xlink:href="#Roboto-ExtraLight-30" transform="translate(110.058594 0)"/>
      </g>
     </g>
    </g>
    <g id="ytick_6">
     <g id="line2d_14">
      <g>
       <use xlink:href="#mbef0329f84" x="47.045547" y="82.105941" style="stroke: #000000; stroke-width: 0.3"/>
      </g>
     </g>
     <g id="text_15">
      <!-- 1000 -->
      <g transform="translate(22.033047 85.855941) scale(0.1 -0.1)">
       <use xlink:href="#Roboto-ExtraLight-31"/>
       <use xlink:href="#Roboto-ExtraLight-30" transform="translate(55.029297 0)"/>
       <use xlink:href="#Roboto-ExtraLight-30" transform="translate(110.058594 0)"/>
       <use xlink:href="#Roboto-ExtraLight-30" transform="translate(165.087891 0)"/>
      </g>
     </g>
    </g>
    <g id="ytick_7">
     <g id="line2d_15">
      <g>
       <use xlink:href="#mbef0329f84" x="47.045547" y="46.52797" style="stroke: #000000; stroke-width: 0.3"/>
      </g>
     </g>
     <g id="text_16">
      <!-- 1200 -->
      <g transform="translate(22.033047 50.27797) scale(0.1 -0.1)">
       <use xlink:href="#Roboto-ExtraLight-31"/>
       <use xlink:href="#Roboto-ExtraLight-32" transform="translate(55.029297 0)"/>
       <use xlink:href="#Roboto-ExtraLight-30" transform="translate(110.058594 0)"/>
       <use xlink:href="#Roboto-ExtraLight-30" transform="translate(165.087891 0)"/>
      </g>
     </g>
    </g>
    <g id="ytick_8">
     <g id="line2d_16">
      <g>
       <use xlink:href="#mbef0329f84" x="47.045547" y="10.95" style="stroke: #000000; stroke-width: 0.3"/>
      </g>
     </g>
     <g id="text_17">
      <!-- 1400 -->
      <g transform="translate(22.033047 14.7) scale(0.1 -0.1)">
       <use xlink:href="#Roboto-ExtraLight-31"/>
       <use xlink:href="#Roboto-ExtraLight-34" transform="translate(55.029297 0)"/>
       <use xlink:href="#Roboto-ExtraLight-30" transform="translate(110.058594 0)"/>
       <use xlink:href="#Roboto-ExtraLight-30" transform="translate(165.087891 0)"/>
      </g>
     </g>
    </g>
    <g id="text_18">
     <!-- Output (units/s) -->
     <g transform="translate(15.622969 171.845204) rotate(-90) scale(0.105 -0.105)">
      <defs>
       <path id="Roboto-Regular-4f" d="M 4031 2419 
L 4031 2131 
Q 4031 1619 3903 1212 
Q 3775 806 3534 522 
Q 3294 238 2958 87 
Q 2622 -63 2206 -63 
Q 1803 -63 1467 87 
Q 1131 238 886 522 
Q 641 806 506 1212 
Q 372 1619 372 2131 
L 372 2419 
Q 372 2931 505 3336 
Q 638 3741 881 4027 
Q 1125 4313 1461 4463 
Q 1797 4613 2200 4613 
Q 2616 4613 2952 4463 
Q 3288 4313 3530 4027 
Q 3772 3741 3901 3336 
Q 4031 2931 4031 2419 
z
M 3434 2131 
L 3434 2425 
Q 3434 2831 3351 3143 
Q 3269 3456 3109 3668 
Q 2950 3881 2720 3990 
Q 2491 4100 2200 4100 
Q 1919 4100 1692 3990 
Q 1466 3881 1305 3668 
Q 1144 3456 1056 3143 
Q 969 2831 969 2425 
L 969 2131 
Q 969 1722 1056 1408 
Q 1144 1094 1308 880 
Q 1472 666 1698 556 
Q 1925 447 2206 447 
Q 2500 447 2728 556 
Q 2956 666 3114 880 
Q 3272 1094 3353 1408 
Q 3434 1722 3434 2131 
z
" transform="scale(0.015625)"/>
       <path id="Roboto-Regular-75" d="M 2509 781 
L 2509 3381 
L 3091 3381 
L 3091 0 
L 2538 0 
L 2509 781 
z
M 2619 1494 
L 2859 1500 
Q 2859 1163 2789 877 
Q 2719 591 2562 381 
Q 2406 172 2153 54 
Q 1900 -63 1538 -63 
Q 1291 -63 1086 9 
Q 881 81 734 231 
Q 588 381 508 622 
Q 428 863 428 1200 
L 428 3381 
L 1006 3381 
L 1006 1194 
Q 1006 966 1057 817 
Q 1109 669 1198 583 
Q 1288 497 1398 462 
Q 1509 428 1628 428 
Q 1997 428 2212 570 
Q 2428 713 2523 955 
Q 2619 1197 2619 1494 
z
" transform="scale(0.015625)"/>
       <path id="Roboto-Regular-74" d="M 1856 3381 
L 1856 2938 
L 28 2938 
L 28 3381 
L 1856 3381 
z
M 647 4203 
L 1225 4203 
L 1225 838 
Q 1225 666 1278 578 
Q 1331 491 1415 462 
Q 1500 434 1597 434 
Q 1669 434 1748 448 
Q 1828 463 1869 472 
L 1872 0 
Q 1803 -22 1692 -42 
Q 1581 -63 1425 -63 
Q 1213 -63 1034 21 
Q 856 106 751 304 
Q 647 503 647 841 
L 647 4203 
z
" transform="scale(0.015625)"/>
       <path id="Roboto-Regular-70" d="M 1019 2731 
L 1019 -1300 
L 438 -1300 
L 438 3381 
L 969 3381 
L 1019 2731 
z
M 3297 1719 
L 3297 1653 
Q 3297 1284 3209 970 
Q 3122 656 2955 425 
Q 2788 194 2544 65 
Q 2300 -63 1984 -63 
Q 1663 -63 1416 43 
Q 1169 150 997 353 
Q 825 556 723 840 
Q 622 1125 584 1481 
L 584 1831 
Q 622 2206 725 2503 
Q 828 2800 998 3011 
Q 1169 3222 1412 3333 
Q 1656 3444 1975 3444 
Q 2294 3444 2541 3320 
Q 2788 3197 2956 2969 
Q 3125 2741 3211 2423 
Q 3297 2106 3297 1719 
z
M 2716 1653 
L 2716 1719 
Q 2716 1972 2662 2195 
Q 2609 2419 2498 2589 
Q 2388 2759 2216 2857 
Q 2044 2956 1806 2956 
Q 1588 2956 1427 2881 
Q 1266 2806 1153 2679 
Q 1041 2553 970 2392 
Q 900 2231 866 2059 
L 866 1250 
Q 928 1031 1040 839 
Q 1153 647 1340 530 
Q 1528 413 1813 413 
Q 2047 413 2217 511 
Q 2388 609 2498 781 
Q 2609 953 2662 1176 
Q 2716 1400 2716 1653 
z
" transform="scale(0.015625)"/>
       <path id="Roboto-Regular-20" transform="scale(0.015625)"/>
       <path id="Roboto-Regular-28" d="M 419 1819 
L 419 1850 
Q 419 2531 572 3082 
Q 725 3634 962 4050 
Q 1200 4466 1462 4739 
Q 1725 5013 1947 5134 
L 2069 4753 
Q 1884 4613 1695 4366 
Q 1506 4119 1348 3759 
Q 1191 3400 1094 2925 
Q 997 2450 997 1856 
L 997 1813 
Q 997 1219 1094 742 
Q 1191 266 1348 -96 
Q 1506 -459 1695 -714 
Q 1884 -969 2069 -1119 
L 1947 -1469 
Q 1725 -1347 1462 -1073 
Q 1200 -800 962 -386 
Q 725 28 572 581 
Q 419 1134 419 1819 
z
" transform="scale(0.015625)"/>
       <path id="Roboto-Regular-6e" d="M 1019 2659 
L 1019 0 
L 441 0 
L 441 3381 
L 988 3381 
L 1019 2659 
z
M 881 1819 
L 641 1828 
Q 644 2175 744 2470 
Q 844 2766 1025 2984 
Q 1206 3203 1457 3323 
Q 1709 3444 2016 3444 
Q 2266 3444 2466 3376 
Q 2666 3309 2808 3162 
Q 2950 3016 3025 2783 
Q 3100 2550 3100 2216 
L 3100 0 
L 2519 0 
L 2519 2222 
Q 2519 2488 2441 2648 
Q 2363 2809 2213 2882 
Q 2063 2956 1844 2956 
Q 1628 2956 1451 2865 
Q 1275 2775 1148 2615 
Q 1022 2456 951 2251 
Q 881 2047 881 1819 
z
" transform="scale(0.015625)"/>
       <path id="Roboto-Regular-69" d="M 1069 3381 
L 1069 0 
L 488 0 
L 488 3381 
L 1069 3381 
z
M 444 4278 
Q 444 4419 530 4516 
Q 616 4613 784 4613 
Q 950 4613 1039 4516 
Q 1128 4419 1128 4278 
Q 1128 4144 1039 4048 
Q 950 3953 784 3953 
Q 616 3953 530 4048 
Q 444 4144 444 4278 
z
" transform="scale(0.015625)"/>
       <path id="Roboto-Regular-2f" d="M 2453 4550 
L 556 -391 
L 59 -391 
L 1959 4550 
L 2453 4550 
z
" transform="scale(0.015625)"/>
       <path id="Roboto-Regular-29" d="M 1772 1850 
L 1772 1819 
Q 1772 1134 1619 581 
Q 1466 28 1228 -386 
Q 991 -800 728 -1073 
Q 466 -1347 244 -1469 
L 122 -1119 
Q 306 -978 493 -726 
Q 681 -475 840 -108 
Q 1000 259 1097 739 
Q 1194 1219 1194 1813 
L 1194 1856 
Q 1194 2450 1091 2929 
Q 988 3409 823 3775 
Q 659 4141 473 4392 
Q 288 4644 122 4781 
L 244 5134 
Q 466 5013 728 4739 
Q 991 4466 1228 4050 
Q 1466 3634 1619 3082 
Q 1772 2531 1772 1850 
z
" transform="scale(0.015625)"/>
      </defs>
      <use xlink:href="#Roboto-Regular-4f"/>
      <use xlink:href="#Roboto-Regular-75" transform="translate(68.798828 0)"/>
      <use xlink:href="#Roboto-Regular-74" transform="translate(123.925781 0)"/>
      <use xlink:href="#Roboto-Regular-70" transform="translate(156.640625 0)"/>
      <use xlink:href="#Roboto-Regular-75" transform="translate(212.792969 0)"/>
      <use xlink:href="#Roboto-Regular-74" transform="translate(267.919922 0)"/>
      <use xlink:href="#Roboto-Regular-20" transform="translate(300.634766 0)"/>
      <use xlink:href="#Roboto-Regular-28" transform="translate(325.439453 0)"/>
      <use xlink:href="#Roboto-Regular-75" transform="translate(359.667969 0)"/>
      <use xlink:href="#Roboto-Regular-6e" transform="translate(414.794922 0)"/>
      <use xlink:href="#Roboto-Regular-69" transform="translate(470.019531 0)"/>
      <use xlink:href="#Roboto-Regular-74" transform="translate(494.335938 0)"/>
      <use xlink:href="#Roboto-Regular-73" transform="translate(527.050781 0)"/>
      <use xlink:href="#Roboto-Regular-2f" transform="translate(578.662109 0)"/>
      <use xlink:href="#Roboto-Regular-73" transform="translate(619.921875 0)"/>
      <use xlink:href="#Roboto-Regular-29" transform="translate(671.533203 0)"/>
     </g>
    </g>
   </g>
   <g id="patch_3">
    <path d="M 61.905206 259.995792 
L 85.367826 259.995792 
L 85.367826 114.126114 
L 61.905206 114.126114 
z
" clip-path="url(#pa6762e2606)" style="fill: #aeedb5; stroke: #ffffff; stroke-width: 0.5; stroke-linejoin: miter"/>
   </g>
   <g id="patch_4">
    <path d="M 101.009572 259.995792 
L 124.472192 259.995792 
L 124.472192 105.231621 
L 101.009572 105.231621 
z
" clip-path="url(#pa6762e2606)" style="fill: #aeedb5; stroke: #ffffff; stroke-width: 0.5; stroke-linejoin: miter"/>
   </g>
   <g id="patch_5">
    <path d="M 140.113938 259.995792 
L 163.576558 259.995792 
L 163.576558 98.116027 
L 140.113938 98.116027 
z
" clip-path="url(#pa6762e2606)" style="fill: #aeedb5; stroke: #ffffff; stroke-width: 0.5; stroke-linejoin: miter"/>
   </g>
   <g id="patch_6">
    <path d="M 179.218304 259.995792 
L 202.680924 259.995792 
L 202.680924 85.663738 
L 179.218304 85.663738 
z
" clip-path="url(#pa6762e2606)" style="fill: #aeedb5; stroke: #ffffff; stroke-width: 0.5; stroke-linejoin: miter"/>
   </g>
   <g id="patch_7">
    <path d="M 218.32267 259.995792 
L 241.78529 259.995792 
L 241.78529 73.211448 
L 218.32267 73.211448 
z
" clip-path="url(#pa6762e2606)" style="fill: #aeedb5; stroke: #ffffff; stroke-width: 0.5; stroke-linejoin: miter"/>
   </g>
   <g id="patch_8">
    <path d="M 257.427036 259.995792 
L 280.889656 259.995792 
L 280.889656 60.759158 
L 257.427036 60.759158 
z
" clip-path="url(#pa6762e2606)" style="fill: #aeedb5; stroke: #ffffff; stroke-width: 0.5; stroke-linejoin: miter"/>
   </g>
   <g id="patch_9">
    <path d="M 296.531402 259.995792 
L 319.994022 259.995792 
L 319.994022 48.306869 
L 296.531402 48.306869 
z
" clip-path="url(#pa6762e2606)" style="fill: #aeedb5; stroke: #ffffff; stroke-width: 0.5; stroke-linejoin: miter"/>
   </g>
   <g id="patch_10">
    <path d="M 335.635768 259.995792 
L 359.098388 259.995792 
L 359.098388 32.296782 
L 335.635768 32.296782 
z
" clip-path="url(#pa6762e2606)" style="fill: #aeedb5; stroke: #ffffff; stroke-width: 0.5; stroke-linejoin: miter"/>
   </g>
   <g id="patch_11">
    <path d="M 47.045547 259.995792 
L 47.045547 9.526881 
" style="fill: none; stroke: #000000; stroke-width: 0.3; stroke-linejoin: miter; stroke-linecap: square"/>
   </g>
   <g id="patch_12">
    <path d="M 47.045547 259.995792 
L 373.958047 259.995792 
" style="fill: none; stroke: #000000; stroke-width: 0.3; stroke-linejoin: miter; stroke-linecap: square"/>
   </g>
  </g>
  <g id="axes_2">
   <g id="matplotlib.axis_3">
    <g id="ytick_9">
     <g id="line2d_17">
      <defs>
       <path id="m918c6627db" d="M 0 0 
L 2 0 
" style="stroke: #000000; stroke-width: 0.3"/>
      </defs>
      <g>
       <use xlink:href="#m918c6627db" x="373.958047" y="255.688787" style="stroke: #000000; stroke-width: 0.3"/>
      </g>
     </g>
     <g id="text_19">
      <!-- 18 -->
      <g transform="translate(376.958047 259.438787) scale(0.1 -0.1)">
       <use xlink:href="#Roboto-ExtraLight-31"/>
       <use xlink:href="#Roboto-ExtraLight-38" transform="translate(55.029297 0)"/>
      </g>
     </g>
    </g>
    <g id="ytick_10">
     <g id="line2d_18">
      <g>
       <use xlink:href="#m918c6627db" x="373.958047" y="222.557979" style="stroke: #000000; stroke-width: 0.3"/>
      </g>
     </g>
     <g id="text_20">
      <!-- 19 -->
      <g transform="translate(376.958047 226.307979) scale(0.1 -0.1)">
       <defs>
        <path id="Roboto-ExtraLight-39" d="M 941 181 
L 1031 181 
Q 1525 181 1873 328 
Q 2222 475 2442 745 
Q 2663 1016 2766 1391 
Q 2869 1766 2869 2225 
L 2869 2825 
Q 2869 3213 2786 3505 
Q 2703 3797 2548 3992 
Q 2394 4188 2175 4286 
Q 1956 4384 1681 4384 
Q 1425 4384 1217 4271 
Q 1009 4159 865 3964 
Q 722 3769 644 3523 
Q 566 3278 566 3009 
Q 566 2759 637 2525 
Q 709 2291 848 2105 
Q 988 1919 1188 1811 
Q 1388 1703 1647 1703 
Q 1963 1703 2198 1822 
Q 2434 1941 2592 2125 
Q 2750 2309 2831 2515 
Q 2913 2722 2916 2900 
L 3050 2906 
Q 3050 2603 2942 2343 
Q 2834 2084 2640 1889 
Q 2447 1694 2189 1584 
Q 1931 1475 1631 1475 
Q 1322 1475 1080 1598 
Q 838 1722 667 1936 
Q 497 2150 408 2425 
Q 319 2700 319 3003 
Q 319 3334 414 3625 
Q 509 3916 686 4137 
Q 863 4359 1113 4486 
Q 1363 4613 1672 4613 
Q 2022 4613 2292 4492 
Q 2563 4372 2745 4140 
Q 2928 3909 3022 3575 
Q 3116 3241 3116 2813 
L 3116 2363 
Q 3116 1928 3042 1556 
Q 2969 1184 2812 887 
Q 2656 591 2411 381 
Q 2166 172 1823 61 
Q 1481 -50 1031 -50 
L 934 -50 
L 941 181 
z
" transform="scale(0.015625)"/>
       </defs>
       <use xlink:href="#Roboto-ExtraLight-31"/>
       <use xlink:href="#Roboto-ExtraLight-39" transform="translate(55.029297 0)"/>
      </g>
     </g>
    </g>
    <g id="ytick_11">
     <g id="line2d_19">
      <g>
       <use xlink:href="#m918c6627db" x="373.958047" y="189.427171" style="stroke: #000000; stroke-width: 0.3"/>
      </g>
     </g>
     <g id="text_21">
      <!-- 20 -->
      <g transform="translate(376.958047 193.177171) scale(0.1 -0.1)">
       <use xlink:href="#Roboto-ExtraLight-32"/>
       <use xlink:href="#Roboto-ExtraLight-30" transform="translate(55.029297 0)"/>
      </g>
     </g>
    </g>
    <g id="ytick_12">
     <g id="line2d_20">
      <g>
       <use xlink:href="#m918c6627db" x="373.958047" y="156.296362" style="stroke: #000000; stroke-width: 0.3"/>
      </g>
     </g>
     <g id="text_22">
      <!-- 21 -->
      <g transform="translate(376.958047 160.046362) scale(0.1 -0.1)">
       <use xlink:href="#Roboto-ExtraLight-32"/>
       <use xlink:href="#Roboto-ExtraLight-31" transform="translate(55.029297 0)"/>
      </g>
     </g>
    </g>
    <g id="ytick_13">
     <g id="line2d_21">
      <g>
       <use xlink:href="#m918c6627db" x="373.958047" y="123.165554" style="stroke: #000000; stroke-width: 0.3"/>
      </g>
     </g>
     <g id="text_23">
      <!-- 22 -->
      <g transform="translate(376.958047 126.915554) scale(0.1 -0.1)">
       <use xlink:href="#Roboto-ExtraLight-32"/>
       <use xlink:href="#Roboto-ExtraLight-32" transform="translate(55.029297 0)"/>
      </g>
     </g>
    </g>
    <g id="ytick_14">
     <g id="line2d_22">
      <g>
       <use xlink:href="#m918c6627db" x="373.958047" y="90.034746" style="stroke: #000000; stroke-width: 0.3"/>
      </g>
     </g>
     <g id="text_24">
      <!-- 23 -->
      <g transform="translate(376.958047 93.784746) scale(0.1 -0.1)">
       <use xlink:href="#Roboto-ExtraLight-32"/>
       <use xlink:href="#Roboto-ExtraLight-33" transform="translate(55.029297 0)"/>
      </g>
     </g>
    </g>
    <g id="ytick_15">
     <g id="line2d_23">
      <g>
       <use xlink:href="#m918c6627db" x="373.958047" y="56.903937" style="stroke: #000000; stroke-width: 0.3"/>
      </g>
     </g>
     <g id="text_25">
      <!-- 24 -->
      <g transform="translate(376.958047 60.653937) scale(0.1 -0.1)">
       <use xlink:href="#Roboto-ExtraLight-32"/>
       <use xlink:href="#Roboto-ExtraLight-34" transform="translate(55.029297 0)"/>
      </g>
     </g>
    </g>
    <g id="ytick_16">
     <g id="line2d_24">
      <g>
       <use xlink:href="#m918c6627db" x="373.958047" y="23.773129" style="stroke: #000000; stroke-width: 0.3"/>
      </g>
     </g>
     <g id="text_26">
      <!-- 25 -->
      <g transform="translate(376.958047 27.523129) scale(0.1 -0.1)">
       <use xlink:href="#Roboto-ExtraLight-32"/>
       <use xlink:href="#Roboto-ExtraLight-35" transform="translate(55.029297 0)"/>
      </g>
     </g>
    </g>
    <g id="text_27">
     <!-- Efficiency (%) -->
     <g transform="translate(400.387266 166.385204) rotate(-90) scale(0.105 -0.105)">
      <defs>
       <path id="Roboto-Regular-45" d="M 3419 491 
L 3419 0 
L 1009 0 
L 1009 491 
L 3419 491 
z
M 1131 4550 
L 1131 0 
L 528 0 
L 528 4550 
L 1131 4550 
z
M 3100 2594 
L 3100 2103 
L 1009 2103 
L 1009 2594 
L 3100 2594 
z
M 3388 4550 
L 3388 4056 
L 1009 4056 
L 1009 4550 
L 3388 4550 
z
" transform="scale(0.015625)"/>
       <path id="Roboto-Regular-66" d="M 1303 0 
L 725 0 
L 725 3738 
Q 725 4103 858 4354 
Q 991 4606 1241 4736 
Q 1491 4866 1834 4866 
Q 1934 4866 2036 4853 
Q 2138 4841 2234 4816 
L 2203 4344 
Q 2138 4359 2055 4365 
Q 1972 4372 1891 4372 
Q 1706 4372 1573 4298 
Q 1441 4225 1372 4084 
Q 1303 3944 1303 3738 
L 1303 0 
z
M 2022 3381 
L 2022 2938 
L 191 2938 
L 191 3381 
L 2022 3381 
z
" transform="scale(0.015625)"/>
       <path id="Roboto-Regular-63" d="M 1794 413 
Q 2000 413 2175 497 
Q 2350 581 2462 729 
Q 2575 878 2591 1069 
L 3141 1069 
Q 3125 769 2939 511 
Q 2753 253 2453 95 
Q 2153 -63 1794 -63 
Q 1413 -63 1130 71 
Q 847 206 661 440 
Q 475 675 383 979 
Q 291 1284 291 1625 
L 291 1756 
Q 291 2097 383 2401 
Q 475 2706 661 2940 
Q 847 3175 1130 3309 
Q 1413 3444 1794 3444 
Q 2191 3444 2487 3283 
Q 2784 3122 2954 2845 
Q 3125 2569 3141 2219 
L 2591 2219 
Q 2575 2428 2473 2597 
Q 2372 2766 2198 2867 
Q 2025 2969 1794 2969 
Q 1528 2969 1348 2864 
Q 1169 2759 1064 2582 
Q 959 2406 914 2192 
Q 869 1978 869 1756 
L 869 1625 
Q 869 1403 912 1187 
Q 956 972 1061 797 
Q 1166 622 1345 517 
Q 1525 413 1794 413 
z
" transform="scale(0.015625)"/>
       <path id="Roboto-Regular-79" d="M 1391 350 
L 2331 3381 
L 2950 3381 
L 1594 -522 
Q 1547 -647 1470 -792 
Q 1394 -938 1275 -1069 
Q 1156 -1200 989 -1283 
Q 822 -1366 591 -1366 
Q 522 -1366 415 -1347 
Q 309 -1328 266 -1316 
L 263 -847 
Q 288 -850 342 -854 
Q 397 -859 419 -859 
Q 616 -859 753 -807 
Q 891 -756 986 -636 
Q 1081 -516 1150 -306 
L 1391 350 
z
M 700 3381 
L 1578 756 
L 1728 147 
L 1313 -66 
L 69 3381 
L 700 3381 
z
" transform="scale(0.015625)"/>
       <path id="Roboto-Regular-25" d="M 328 3434 
L 328 3675 
Q 328 3934 440 4146 
Q 553 4359 762 4487 
Q 972 4616 1259 4616 
Q 1553 4616 1761 4487 
Q 1969 4359 2081 4146 
Q 2194 3934 2194 3675 
L 2194 3434 
Q 2194 3181 2083 2968 
Q 1972 2756 1764 2628 
Q 1556 2500 1266 2500 
Q 975 2500 764 2628 
Q 553 2756 440 2968 
Q 328 3181 328 3434 
z
M 763 3675 
L 763 3434 
Q 763 3291 817 3162 
Q 872 3034 984 2954 
Q 1097 2875 1266 2875 
Q 1434 2875 1543 2954 
Q 1653 3034 1706 3162 
Q 1759 3291 1759 3434 
L 1759 3675 
Q 1759 3822 1704 3951 
Q 1650 4081 1539 4161 
Q 1428 4241 1259 4241 
Q 1094 4241 983 4161 
Q 872 4081 817 3951 
Q 763 3822 763 3675 
z
M 2544 872 
L 2544 1116 
Q 2544 1372 2656 1584 
Q 2769 1797 2978 1925 
Q 3188 2053 3475 2053 
Q 3769 2053 3976 1925 
Q 4184 1797 4296 1584 
Q 4409 1372 4409 1116 
L 4409 872 
Q 4409 616 4298 403 
Q 4188 191 3980 62 
Q 3772 -66 3481 -66 
Q 3191 -66 2981 62 
Q 2772 191 2658 403 
Q 2544 616 2544 872 
z
M 2978 1116 
L 2978 872 
Q 2978 728 3033 598 
Q 3088 469 3200 389 
Q 3313 309 3481 309 
Q 3650 309 3761 389 
Q 3872 469 3925 597 
Q 3978 725 3978 872 
L 3978 1116 
Q 3978 1263 3923 1391 
Q 3869 1519 3758 1598 
Q 3647 1678 3475 1678 
Q 3309 1678 3198 1598 
Q 3088 1519 3033 1391 
Q 2978 1263 2978 1116 
z
M 3619 3903 
L 1397 347 
L 1072 553 
L 3294 4109 
L 3619 3903 
z
" transform="scale(0.015625)"/>
      </defs>
      <use xlink:href="#Roboto-Regular-45"/>
      <use xlink:href="#Roboto-Regular-66" transform="translate(56.835938 0)"/>
      <use xlink:href="#Roboto-Regular-66" transform="translate(91.601562 0)"/>
      <use xlink:href="#Roboto-Regular-69" transform="translate(126.367188 0)"/>
      <use xlink:href="#Roboto-Regular-63" transform="translate(150.683594 0)"/>
      <use xlink:href="#Roboto-Regular-69" transform="translate(203.027344 0)"/>
      <use xlink:href="#Roboto-Regular-65" transform="translate(227.34375 0)"/>
      <use xlink:href="#Roboto-Regular-6e" transform="translate(280.371094 0)"/>
      <use xlink:href="#Roboto-Regular-63" transform="translate(335.595703 0)"/>
      <use xlink:href="#Roboto-Regular-79" transform="translate(387.939453 0)"/>
      <use xlink:href="#Roboto-Regular-20" transform="translate(435.253906 0)"/>
      <use xlink:href="#Roboto-Regular-28" transform="translate(460.058594 0)"/>
      <use xlink:href="#Roboto-Regular-25" transform="translate(494.287109 0)"/>
      <use xlink:href="#Roboto-Regular-29" transform="translate(567.529297 0)"/>
     </g>
    </g>
   </g>
   <g id="line2d_25">
    <path d="M 73.636516 239.123383 
L 112.740882 215.931817 
L 151.845248 186.11409 
L 190.949614 156.296362 
L 230.05398 113.226311 
L 269.158346 86.721665 
L 308.262712 56.903937 
L 347.367078 30.39929 
" clip-path="url(#pa6762e2606)" style="fill: none; stroke: #fdd3a2; stroke-width: 2; stroke-linecap: square"/>
    <defs>
     <path id="m2a03a201fd" d="M 0 2.5 
C 0.663008 2.5 1.29895 2.236584 1.767767 1.767767 
C 2.236584 1.29895 2.5 0.663008 2.5 0 
C 2.5 -0.663008 2.236584 -1.29895 1.767767 -1.767767 
C 1.29895 -2.236584 0.663008 -2.5 0 -2.5 
C -0.663008 -2.5 -1.29895 -2.236584 -1.767767 -1.767767 
C -2.236584 -1.29895 -2.5 -0.663008 -2.5 0 
C -2.5 0.663008 -2.236584 1.29895 -1.767767 1.767767 
C -1.29895 2.236584 -0.663008 2.5 0 2.5 
z
" style="stroke: #fdd3a2"/>
    </defs>
    <g clip-path="url(#pa6762e2606)">
     <use xlink:href="#m2a03a201fd" x="73.636516" y="239.123383" style="fill: #fdd3a2; stroke: #fdd3a2"/>
     <use xlink:href="#m2a03a201fd" x="112.740882" y="215.931817" style="fill: #fdd3a2; stroke: #fdd3a2"/>
     <use xlink:href="#m2a03a201fd" x="151.845248" y="186.11409" style="fill: #fdd3a2; stroke: #fdd3a2"/>
     <use xlink:href="#m2a03a201fd" x="190.949614" y="156.296362" style="fill: #fdd3a2; stroke: #fdd3a2"/>
     <use xlink:href="#m2a03a201fd" x="230.05398" y="113.226311" style="fill: #fdd3a2; stroke: #fdd3a2"/>
     <use xlink:href="#m2a03a201fd" x="269.158346" y="86.721665" style="fill: #fdd3a2; stroke: #fdd3a2"/>
     <use xlink:href="#m2a03a201fd" x="308.262712" y="56.903937" style="fill: #fdd3a2; stroke: #fdd3a2"/>
     <use xlink:href="#m2a03a201fd" x="347.367078" y="30.39929" style="fill: #fdd3a2; stroke: #fdd3a2"/>
    </g>
   </g>
   <g id="patch_13">
    <path d="M 47.045547 259.995792 
L 47.045547 9.526881 
" style="fill: none; stroke: #000000; stroke-width: 0.3; stroke-linejoin: miter; stroke-linecap: square"/>
   </g>
   <g id="patch_14">
    <path d="M 373.958047 259.995792 
L 373.958047 9.526881 
" style="fill: none; stroke: #000000; stroke-width: 0.3; stroke-linejoin: miter; stroke-linecap: square"/>
   </g>
   <g id="patch_15">
    <path d="M 47.045547 259.995792 
L 373.958047 259.995792 
" style="fill: none; stroke: #000000; stroke-width: 0.3; stroke-linejoin: miter; stroke-linecap: square"/>
   </g>
  </g>
 </g>
 <defs>
  <clipPath id="pa6762e2606">
   <rect x="47.045547" y="9.526881" width="326.9125" height="250.468911"/>
  </clipPath>
 </defs>
</svg>
